<svg width="40" height="40" viewBox="0 0 40 40" fill="none" xmlns="http://www.w3.org/2000/svg">
<g clip-path="url(#clip0_271_2422)">
<path d="M34.8242 17.8635C35.1608 17.8635 35.4336 18.1363 35.4336 18.4728V28.9209C35.4336 29.2575 35.1608 29.5303 34.8242 29.5303H2.52344C2.18689 29.5303 1.91406 29.2575 1.91406 28.9209V11.2793C1.91406 10.9427 2.18689 10.6699 2.52344 10.6699H25.7567C26.0933 10.6699 26.3661 10.9427 26.3661 11.2793V17.2541C26.3661 17.5906 26.6389 17.8635 26.9755 17.8635H34.8242Z" stroke="#0B1620" stroke-miterlimit="10"/>
<path d="M38.7837 6.92188H29.6353C29.2987 6.92188 29.0259 7.1947 29.0259 7.53125V14.5639C29.0259 14.9005 29.2987 15.1733 29.6353 15.1733H38.7837C39.1202 15.1733 39.3931 14.9005 39.3931 14.5639V7.53125C39.3931 7.1947 39.1202 6.92188 38.7837 6.92188Z" fill="#2EC4F1"/>
<path d="M18.2566 24.1555C16.5562 24.034 15.7465 23.1838 15.625 22.1717H16.3942C16.4347 22.779 16.961 23.4268 18.2161 23.5077V20.1474C16.961 19.9045 15.7465 19.4187 15.7465 17.9207C15.7465 16.7871 16.5967 15.9369 18.2161 15.8154V14.8438H18.8639V15.8154C20.3618 15.9369 21.0906 16.7871 21.2121 17.6373H20.4428C20.3618 17.1514 19.9165 16.5846 18.9044 16.4632V19.4996C20.1999 19.7425 21.5359 20.1474 21.5359 21.8478C21.5359 23.1029 20.6048 23.9936 18.9044 24.115V25.0867H18.2566V24.1555ZM18.2566 19.3782V16.5037C17.0015 16.6251 16.5562 17.3134 16.5562 17.8802C16.5967 18.7709 17.2039 19.1353 18.2566 19.3782ZM18.9448 20.2689V23.4672C20.1999 23.3458 20.8072 22.6575 20.8072 21.9288C20.7667 20.8357 20.0784 20.5118 18.9448 20.2689Z" fill="#0B1620"/>
</g>
<defs>
<clipPath id="clip0_271_2422">
<rect width="40" height="40" fill="white"/>
</clipPath>
</defs>
</svg>
