<svg width="37" height="37" viewBox="0 0 37 37" fill="none" xmlns="http://www.w3.org/2000/svg">
<path d="M33.8902 9.88014L25.8965 14.0619C26.6646 15.3705 27.1198 16.8782 27.1198 18.4997C27.1198 21.572 25.4983 24.2745 23.0802 25.8107C21.7432 26.6357 20.1786 27.1193 18.5002 27.1193C13.8633 27.1193 10.0798 23.478 9.88063 18.898C9.88063 18.7557 9.88063 18.6419 9.88063 18.4997C9.88063 13.749 13.7495 9.88014 18.5002 9.88014V0.862305C8.77118 0.862305 0.862793 8.77069 0.862793 18.4997C0.862793 18.9549 0.89124 19.41 0.919688 19.8652C1.60243 28.9684 9.22633 36.1371 18.5002 36.1371C21.8285 36.1371 24.9578 35.1983 27.6318 33.6053C32.7239 30.5045 36.1376 24.9004 36.1376 18.4997C36.1376 15.3705 35.3126 12.412 33.8902 9.88014Z" stroke="#0B1620" stroke-miterlimit="10" stroke-linecap="round" stroke-linejoin="round"/>
<path d="M33.8901 9.88014L25.8963 14.0619C24.3886 11.5585 21.6292 9.88014 18.5 9.88014V5.37122V0.862305C25.0998 0.862305 30.8746 4.50357 33.8901 9.88014Z" fill="#2EC4F1" stroke="#0B1620" stroke-width="0.867188" stroke-miterlimit="10" stroke-linecap="round" stroke-linejoin="round"/>
<path d="M18.116 22.8359H18.884V21.952C20.324 21.8184 21.1016 20.9962 21.1016 19.8554C21.1016 18.3343 19.988 17.8718 18.884 17.6662V15.3126C19.556 15.4257 19.844 15.8162 19.9112 16.2068H20.8616C20.7752 15.364 20.132 14.6137 18.884 14.4801V13.5859H18.116V14.4801C16.724 14.6034 16.0424 15.4257 16.0424 16.4123C16.0424 17.7484 17.06 18.2418 18.116 18.4782V21.1195C17.252 21.0168 16.8872 20.5748 16.8488 20.0609H15.8984C15.9848 21.0168 16.6664 21.8287 18.116 21.952V22.8359ZM20.1608 19.9068C20.1608 20.544 19.7576 21.0168 18.884 21.1195V18.622C19.7192 18.8173 20.1608 19.0845 20.1608 19.9068ZM16.9832 16.3609C16.9832 15.9087 17.2712 15.4257 18.116 15.3023V17.5018C17.3672 17.3065 16.9832 17.0084 16.9832 16.3609Z" fill="#0B1620"/>
<path d="M0.862793 19.8941L0.919688 19.8656L9.88063 18.8984" stroke="#0B1620" stroke-width="0.867188" stroke-miterlimit="10" stroke-linecap="round" stroke-linejoin="round"/>
<path d="M27.6317 33.6056L23.0801 25.811" stroke="#0B1620" stroke-miterlimit="10" stroke-linecap="round" stroke-linejoin="round"/>
</svg>
